<svg width="283" height="411" xmlns="http://www.w3.org/2000/svg" xml:space="preserve" version="1.1">

 <g>
  <title>Layer 1</title>
  <g id="XMLID_82_">
   <path id="svg_1" fill="#E2AFBF" d="m226.38879,200.11569c-4.5,-7.19998 -5.29999,-17.10001 -0.29999,-23.89999c3,-4.10001 22,-10.79999 22.39999,-1.60001c0.39999,-5.89999 7.10001,-10.5 12.79999,-8.69998c5.80002,1.79999 7,8.09998 6.60001,13.09998c0.20001,-2.79999 10.29999,3 11.10001,4c5.39999,7.10001 -1.80002,10.20001 -7.5,12.40002c5,2.59998 7.89999,8.39999 6.19998,13.89999c-1.69998,5.39999 -7.19998,9.10001 -12.79999,9.19998c0.10001,0.60001 0.29999,1.10001 0.39999,1.70001c-2.79999,2.60001 -6.89999,3.70001 -10.60001,3c-3.79999,-0.70001 -7.09998,-3.20001 -8.79999,-6.70001" class="st0"/>
   <g id="svg_2">
    <path id="svg_3" fill="#533724" d="m228.58881,198.81567c-3.89999,-6.79999 -5.79999,-18.70001 2.39999,-23.20001c2.30002,-1.29999 14.5,-6.29999 15.10001,-1.09998c0.29999,2.5 4.5,3.69998 4.89999,0.69998c0.70001,-4.39999 4.89999,-8.5 9.70001,-6.89999c4.5,1.5 4.89999,6.70001 4.69998,10.70001c-0.09998,2.89999 4.10001,3.29999 4.90002,0.69998c-0.80002,2.60001 -1.30002,0.30002 0.09998,1.39999c0.60001,0.5 1.70001,0.70001 2.40002,1.10001c1.19998,0.60001 2.79999,1.30002 3.79999,2.20001c4.89999,4.39999 -2.5,7.39999 -5.89999,8.69998c-1.89999,0.80002 -2.60001,3.40002 -0.60001,4.60001c9.60001,5.60001 4.79999,17.80002 -5.39999,18.39999c-1.70001,0.10001 -2.80002,1.5 -2.39999,3.20001c0.09998,0.60001 0.29999,1.10001 0.39999,1.70001c0.19998,-0.80002 0.39999,-1.60001 0.60001,-2.40002c-5.30002,4.20001 -12.30002,2.60001 -15.60001,-3.09998c-1.60001,-2.80002 -5.89999,-0.30002 -4.30002,2.5c5.10001,8.79999 15.60001,10.39999 23.40002,4.19998c0.69998,-0.60001 0.79999,-1.60001 0.59998,-2.39999c-0.09998,-0.60001 -0.29999,-1.10001 -0.39999,-1.70001c-0.79999,1.10001 -1.60001,2.10001 -2.39999,3.20001c15,-1 22,-19.5 7.89999,-27.79999c-0.19998,1.5 -0.39999,3 -0.60001,4.59998c6.80002,-2.59998 16.30002,-9 8.40002,-16.79999c-2.70001,-2.60001 -13.10001,-8.79999 -15,-2.70001c1.59998,0.20001 3.29999,0.40002 4.89999,0.70001c0.29999,-6.79999 -2.10001,-14.39999 -9.60001,-15.79999c-6.89999,-1.30002 -13.60001,4 -14.60001,10.69998c1.60001,0.20001 3.30002,0.39999 4.89999,0.70001c-1.19998,-10.5 -14.59998,-7 -21,-4c-11.89999,5.60001 -11.59998,20.69998 -5.79999,30.79999c1.79999,2.40002 6.10001,-0.09998 4.5,-2.89999l0,0z" class="st1"/>
   </g>
  </g>
  <g id="XMLID_36_">
   <polygon id="svg_4" fill="#FFF3F3" points="61.688812255859375,399.7156982421875 40.188812255859375,399.7156982421875 31.288803100585938,306.01568603515625 70.48880004882812,306.01568603515625 " class="st2"/>
   <g id="svg_5">
    <path id="svg_6" fill="#533724" d="m61.68881,397.2157c-7.2,0 -14.3,0 -21.5,0c0.8,0.79999 1.7,1.70001 2.5,2.5c-2.59999,-27.29999 -5.2,-54.59998 -7.7,-81.89999c-0.39999,-3.89999 -0.7,-7.89999 -1.10001,-11.80002c-0.79999,0.80002 -1.7,1.70001 -2.5,2.5c13.10001,0 26.10001,0 39.20001,0c-0.8,-0.79999 -1.70001,-1.69998 -2.5,-2.5c-2.60001,27.29999 -5.20001,54.60004 -7.70001,81.90002c-0.39999,3.89996 -0.7,7.89996 -1.09999,11.79999c-0.3,3.20001 4.7,3.20001 5,0c2.59999,-27.29999 5.2,-54.59998 7.7,-81.89999c0.39999,-3.89999 0.7,-7.89999 1.10001,-11.80002c0.09999,-1.29999 -1.20001,-2.5 -2.5,-2.5c-13.10001,0 -26.10001,0 -39.20001,0c-1.29999,0 -2.59999,1.10001 -2.5,2.5c2.60001,27.29999 5.20001,54.60004 7.70001,81.90002c0.39999,3.89996 0.7,7.89996 1.09999,11.79999c0.10001,1.29999 1,2.5 2.5,2.5c7.2,0 14.3,0 21.5,0c3.2,0 3.2,-5 0,-5z" class="st1"/>
   </g>
  </g>
  <g id="XMLID_61_">
   <polygon id="svg_7" fill="#FFF3F3" points="118.8887939453125,408.51568603515625 97.3887939453125,408.51568603515625 88.58880615234375,314.815673828125 127.788818359375,314.815673828125 " class="st2"/>
   <g id="svg_8">
    <path id="svg_9" fill="#533724" d="m118.88879,406.01569c-7.20001,0 -14.29999,0 -21.5,0c0.79999,0.79999 1.70001,1.70001 2.5,2.5c-2.60001,-27.29999 -5.20001,-54.59998 -7.70001,-81.90002c-0.39999,-3.89996 -0.69998,-7.89996 -1.09999,-11.79999c-0.79999,0.80002 -1.7,1.70001 -2.5,2.5c13.09999,0 26.09999,0 39.2,0c-0.79999,-0.79999 -1.69998,-1.69998 -2.5,-2.5c-2.60001,27.29999 -5.19998,54.60004 -7.69998,81.90002c-0.40002,3.89996 -0.70001,7.89996 -1.10001,11.79999c-0.30002,3.20001 4.69998,3.20001 5,0c2.60001,-27.29999 5.19998,-54.59998 7.69998,-81.90002c0.40002,-3.89996 0.70001,-7.89996 1.10001,-11.79999c0.10001,-1.29999 -1.19998,-2.5 -2.5,-2.5c-13.10001,0 -26.10001,0 -39.2,0c-1.29999,0 -2.59999,1.10001 -2.5,2.5c2.60001,27.29999 5.20001,54.60004 7.7,81.90002c0.39999,3.89996 0.70001,7.89996 1.10001,11.79999c0.10001,1.29999 1,2.5 2.5,2.5c7.20001,0 14.29999,0 21.5,0c3.30002,0 3.30002,-5 0,-5z" class="st1"/>
   </g>
  </g>
  <g id="XMLID_68_">
   <polygon id="svg_10" fill="#FFF3F3" points="238.288818359375,408.51568603515625 216.788818359375,408.51568603515625 207.8887939453125,314.815673828125 247.18881225585938,314.815673828125 " class="st2"/>
   <g id="svg_11">
    <path id="svg_12" fill="#533724" d="m238.28882,406.01569c-7.20001,0 -14.29999,0 -21.5,0c0.79999,0.79999 1.70001,1.70001 2.5,2.5c-2.60001,-27.29999 -5.20001,-54.59998 -7.70001,-81.90002c-0.39999,-3.89996 -0.69998,-7.89996 -1.09998,-11.79999c-0.80002,0.80002 -1.70001,1.70001 -2.5,2.5c13.09998,0 26.09998,0 39.19998,0c-0.79999,-0.79999 -1.69998,-1.69998 -2.5,-2.5c-2.60001,27.29999 -5.19998,54.60004 -7.69998,81.90002c-0.40002,3.89996 -0.70001,7.89996 -1.10001,11.79999c-0.30002,3.20001 4.69998,3.20001 5,0c2.60001,-27.29999 5.19998,-54.59998 7.69998,-81.90002c0.40002,-3.89996 0.70001,-7.89996 1.10001,-11.79999c0.10001,-1.29999 -1.19998,-2.5 -2.5,-2.5c-13.10001,0 -26.10001,0 -39.19998,0c-1.30002,0 -2.60001,1.10001 -2.5,2.5c2.59998,27.29999 5.19998,54.60004 7.69998,81.90002c0.39999,3.89996 0.70001,7.89996 1.10001,11.79999c0.10001,1.29999 1,2.5 2.5,2.5c7.20001,0 14.29999,0 21.5,0c3.19998,0 3.19998,-5 0,-5z" class="st1"/>
   </g>
  </g>
  <g id="XMLID_69_">
   <polygon id="svg_13" fill="#FFF3F3" points="193.3887939453125,399.7156982421875 171.8887939453125,399.7156982421875 163.08880615234375,306.01568603515625 202.288818359375,306.01568603515625 " class="st2"/>
   <g id="svg_14">
    <path id="svg_15" fill="#533724" d="m193.38879,397.2157c-7.20001,0 -14.29999,0 -21.5,0c0.79999,0.79999 1.70001,1.70001 2.5,2.5c-2.60001,-27.29999 -5.20001,-54.59998 -7.70001,-81.89999c-0.39999,-3.89999 -0.69998,-7.89999 -1.09998,-11.80002c-0.80002,0.80002 -1.70001,1.70001 -2.5,2.5c13.09998,0 26.09998,0 39.19998,0c-0.79999,-0.79999 -1.69998,-1.69998 -2.5,-2.5c-2.60001,27.29999 -5.19998,54.60004 -7.69998,81.90002c-0.40002,3.89996 -0.70001,7.89996 -1.10001,11.79999c-0.30002,3.20001 4.69998,3.20001 5,0c2.60001,-27.29999 5.19998,-54.59998 7.69998,-81.89999c0.40002,-3.89999 0.70001,-7.89999 1.10001,-11.80002c0.10001,-1.29999 -1.19998,-2.5 -2.5,-2.5c-13.10001,0 -26.10001,0 -39.19998,0c-1.30002,0 -2.60001,1.10001 -2.5,2.5c2.59998,27.29999 5.19998,54.60004 7.69998,81.90002c0.39999,3.89996 0.70001,7.89996 1.10001,11.79999c0.10001,1.29999 1,2.5 2.5,2.5c7.20001,0 14.29999,0 21.5,0c3.20001,0 3.20001,-5 0,-5z" class="st1"/>
   </g>
  </g>
  <g id="XMLID_33_">
   <path id="svg_16" fill="#FFF3F3" d="m141.58881,48.41568c0.79999,0.5 1.5,0.89999 2.29999,1.39999c-1.29999,0.5 -2.69998,-0.5 -3.59998,-1.5c-5.10001,-5.39999 -11.10001,-17.7 -6.30002,-24.5c4.20001,-6.09999 19,-9.09999 25.70001,-9.8c0.89999,-0.09999 2,-0.09999 2.60001,0.60001c0.39999,0.39999 0.39999,1 0.5,1.5c1.59998,13.7 -5.90002,28.10001 -18,34.7" class="st2"/>
   <g id="svg_17">
    <path id="svg_18" fill="#533724" d="m140.28882,50.61569c0.79999,0.5 1.5,0.90001 2.29999,1.40001c0.40002,-1.60001 0.80002,-3.10001 1.30002,-4.70001c-3.10001,0.20001 -6,-6.5 -7,-8.79999c-1.60001,-3.60001 -3.30002,-8.70001 -1.39999,-12.5c2.79999,-5.60001 11.89999,-7.3 17.39999,-8.40001c1.5,-0.3 3.10001,-0.59999 4.60001,-0.89999c2.39999,-0.40001 2.79999,-0.3 3.09998,2.2c0.40002,3.39999 -0.5,7.3 -1.5,10.60001c-2.59998,8.09999 -8.09998,14.89999 -15.39999,19.09999c-2.79999,1.60001 -0.29999,5.90001 2.5,4.3c10.10001,-5.8 17.20001,-16.10001 19,-27.7c0.5,-3.5 1.70001,-10.3 -1.5,-12.90001c-3,-2.39999 -9.39999,-0.2 -12.69998,0.60001c-8.40002,1.89999 -19.90002,5.2 -21.10001,15.3c-0.60001,5.3 1.39999,10.8 4,15.3c2.10001,3.79999 5.19998,9.09999 10.10001,8.79999c2.39999,-0.09999 3.39999,-3.29999 1.29999,-4.7c-0.79999,-0.5 -1.5,-0.89999 -2.29999,-1.39999c-2.90002,-1.60001 -5.40002,2.69998 -2.70001,4.39999l0,0z" class="st1"/>
   </g>
  </g>
  <g id="XMLID_31_">
   <path id="svg_19" fill="#FFF3F3" d="m4.18881,18.21568c-0.59999,0.10001 -1.2,0.3 -1.59999,0.8c-0.5,0.7 -0.40001,1.60001 -0.20001,2.5c2,8.3 4.20001,16.89999 9.70001,23.39999c3.2,3.8 8.89999,3 12.79999,0.90001c26.59999,-14.8 -1.2,-32.3 -20.7,-27.60001z" class="st2"/>
   <g id="svg_20">
    <path id="svg_21" fill="#533724" d="m3.58881,15.81569c-5.39999,1.7 -3.39999,6.8 -2.3,11c1.7,6.3 3.8,12.7 7.8,18.09999c7.10001,9.60001 20,3.70001 26.2,-4.09999c5.3,-6.7 3,-14.40001 -3.39999,-19.3c-7.90001,-6 -18.8,-7.8 -28.3,-5.7c-3.10001,0.7 -1.8,5.5 1.3,4.8c6.39999,-1.40001 13.39999,-0.60001 19.39999,2.09999c4.3,2 10.3,6 8.8,11.60001c-1.7,6.5 -13.60001,14.2 -19.2,8.7c-2,-1.89999 -10.90001,-21.89999 -9.10001,-22.39999c3.2,-1 1.90001,-5.8 -1.2,-4.8z" class="st1"/>
   </g>
  </g>
  <g id="XMLID_75_">
   <path id="svg_22" fill="#E2AFBF" d="m146.28882,171.81567c6.70001,-9.39999 3.89999,-24.60001 -5.79999,-30.70001c5.89999,-7.19998 7,-18.09998 2.79999,-26.5c-0.89999,-1.79999 -2.70001,-3.79999 -4.60001,-2.89999l0.60001,-0.19998c9.89999,-9.60001 10.89999,-27.30002 2.10001,-38c10.39999,-8.60001 9,-28.20001 -2.5,-35.10001c-0.30002,-7.2 -1.30002,-14.8 -5.89999,-20.2c-4.60001,-5.40001 -13.90002,-6.90001 -18.30002,-1.3c-2.60001,-8.5 -11.10001,-14.7 -19.69998,-14.40001c-8.60002,0.3 -16.70001,7.10001 -18.70001,15.8c-4.2,-9.09999 -15,-14.3 -24.5,-11.8c-9.5,2.5 -16.5,12.40001 -16,22.5c-8.90001,2.10001 -16.5,9.40001 -19.10001,18.5c-2.59999,9.10001 -0.09999,19.50002 6.3,26.3c-9.39999,7.29999 -7.60001,25 3,30.10001l-1.5,1.29999c-3.5,2.5 -5.3,7.10001 -5.2,11.5c0.09999,4.39999 2.09999,8.60001 4.7,12.10001c0.8,1.10001 1.7,2.20001 1.60001,3.60001c-0.10001,1.29999 -1.20001,2.29999 -2.10001,3.19998c-8,7.70001 -9.5,21.60001 -3.3,30.90002l-1,2c-6,7.5 -6,19.19998 0,26.69998l-0.39999,0.80002c-7.5,4 -10.8,14.29999 -7.2,22c1.09999,2.19998 2.7,4.5 2.09999,6.89999c-0.39999,1.89999 -2,3.19998 -3.2,4.60001c-6.89999,7.59998 -6,20.89999 1.89999,27.5c-10.29999,10.19998 -8.59999,29.59998 3.20001,37.89999c-4.3,11.60001 5.79999,26 18.09999,25.79999c2.8,8.80002 10.2,16.00003 19.10001,18.50003s19,0.19995 25.89999,-5.90002l-0.89999,-0.40002c3.09999,7 10.09999,12.10004 17.79999,12.80005c7.60001,0.79999 15.5,-2.80005 20,-9.10004c3.5,9.10004 12.80002,15.60004 22.5,15.90002s19.30002,-5.70001 23.40002,-14.60004c5.5,6 12.5,11.30005 20.5,12c8.09998,0.70001 17,-5.09998 17.29999,-13.19995c5.29999,5.59998 12.70001,9.79999 20.29999,9.19995c7.70001,-0.59998 15,-7.19995 14.5,-14.89996c0.90002,5.89996 9.60001,7.79999 14.20001,4c4.60001,-3.79999 5.5,-10.60004 4.20001,-16.40002l1.89999,-1.59998c12.69998,-6.80002 16.29999,-26.30002 6.79999,-37.20001c12.5,-9.79999 14,-30.70001 3,-42.10001c4,-7.60001 3.60001,-17.39999 -1,-24.69998c-4.60001,-7.30002 -13.10001,-11.90002 -21.69998,-11.70001c-1.90002,-7.79999 -8,-14.5 -15.60001,-17.10001c-7.60001,-2.60001 -16.5,-1.10001 -22.80002,3.80002c-2.59998,-6.30002 -8.89999,-11 -15.69998,-11.70001c-6.80002,-0.70001 -13.89999,2.60001 -17.70001,8.29999c-0.69998,-10.69998 -16,-17 -24,-9.79999" class="st0"/>
   <g id="svg_23">
    <path id="svg_24" fill="#533724" d="m148.38879,173.01569c7.29999,-11 4.20001,-26.70001 -6.70001,-34.10001c0.30002,1.10001 0.60001,2.30002 0.90002,3.39999c4.29999,-5.69998 6.29999,-12.89999 5.5,-20c-0.60001,-5.09998 -2.80002,-13.89999 -9.40002,-13.19998c0.20001,1.60001 0.40002,3.29999 0.70001,4.89999c6.39999,-1.70001 9.60001,-13.29999 10.29999,-18.79999c1.10001,-8.5 -1.19998,-16.80002 -6.5,-23.5c0,1.19998 0,2.39999 0,3.5c11.60001,-10.20001 9.90002,-30.70001 -3,-39.00002c0.40002,0.7 0.80002,1.40001 1.20001,2.2c-0.39999,-8.5 -1.70001,-18.5 -9,-24.09999c-5.79999,-4.40001 -14.39999,-4.8 -19.5,0.8c1.39999,0.39999 2.79999,0.7 4.20001,1.09999c-3.20001,-9.3 -11.90002,-16.59999 -22.20001,-16.2c-10.2,0.39999 -18.5,8.10001 -21.09999,17.7c1.5,-0.2 3,-0.39999 4.59999,-0.59999c-4.79999,-9.60001 -15.79999,-15.60001 -26.59999,-13.10001c-11.3,2.60001 -18.7,13.8 -18.5,25.10001c0.60001,-0.8 1.2,-1.60001 1.8,-2.40001c-21.8,5.7 -28.5,32.60001 -13.89999,49.00002c0,-1.20001 0,-2.40002 0,-3.5c-10.5,8.79999 -8.60001,27.59998 3.59999,34c-0.2,-1.30002 -0.3,-2.60001 -0.5,-3.90002c-4.09999,3.70001 -7.09999,7.40002 -7.39999,13.20001c-0.2,3.10001 0.5,6.29999 1.7,9.20001c0.8,1.79999 1.7,3.39999 2.8,5c1.59999,2.29999 1.09999,3.19998 -0.60001,5.39999c-7.39999,9.69998 -9.39999,22.10001 -2.8,32.89999c0,-0.79999 0,-1.70001 0,-2.5c-2.29999,4.70001 -5,8.39999 -5.59999,13.70001c-0.7,6.29999 0.89999,12.39999 4.7,17.5c0,-0.80002 0,-1.70001 0,-2.5c-0.89999,1.69998 -3.89999,3.19998 -5.2,4.89999c-1.7,2.19998 -2.90001,4.69998 -3.60001,7.39999c-0.7,2.89999 -0.89999,5.89999 -0.3,8.89999c1,4.70001 4.70001,7.39999 1.20001,12.20001c-3.60001,4.89999 -6.10001,9.5 -5.8,15.79999c0.2,6.10001 2.7,11.70001 7.2,15.80002c0,-1.20001 0,-2.40002 0,-3.5c-11.39999,11.89999 -9.39999,32.09998 3.8,41.79999c-0.40001,-0.89999 -0.8,-1.89999 -1.10001,-2.79999c-4.5,13.59998 6.3,28.59998 20.5,29c-0.8,-0.60004 -1.59999,-1.20001 -2.39999,-1.79999c7.2,20.79999 32.3,27.69995 49.2,13.69995c1.60001,-1.29999 0.39999,-3.5 -1.10001,-4.19995c-0.29999,-0.10004 -0.59999,-0.30005 -0.89999,-0.40002c-2.2,-0.90002 -3.7,1.90002 -2.8,3.70001c8.3,17 30.8,18.5 42.00002,3.79999c-1.40002,0 -2.90002,0 -4.30002,0c9.20001,21.70001 39.80002,22.40002 50.20001,1.29999c-1.30002,0.20001 -2.60001,0.29999 -3.89999,0.5c6.69998,7.10004 15.79999,14 26.19998,12.60004c8.20001,-1.10004 15.20001,-7.10004 15.89999,-15.60004c-1.39999,0.60004 -2.79999,1.20001 -4.29999,1.79999c6.39999,6.5 15.39999,11.60004 24.79999,9.5c8,-1.69995 14.40002,-8.69995 14.30002,-17c-1.60001,0.20001 -3.30002,0.40002 -4.89999,0.70001c1.59998,6.70001 9.59998,9.40002 15.69998,6.79999c7.80002,-3.5 8.89999,-13.09998 7.60001,-20.49997c-0.20001,0.79999 -0.39999,1.60001 -0.60001,2.39999c2.89999,-2.39999 6,-4.10001 8.39999,-7.10001c2.70001,-3.29999 4.70001,-7.29999 5.60001,-11.5c1.89999,-8.39999 0.20001,-17 -5.29999,-23.79999c0,1.19998 0,2.39999 0,3.5c13.5,-11.20001 14.69998,-32.80002 3,-45.60001c0.10001,1 0.29999,2 0.39999,3c8.89999,-18.70001 -4,-40 -24.89999,-40.20001c0.79999,0.60001 1.60001,1.20001 2.39999,1.80002c-5.10001,-18.30002 -26.60001,-26.10001 -42.10001,-14.80002c1.10001,0.30002 2.30002,0.60001 3.39999,0.90002c-7.19998,-15.60001 -27.69998,-16.90002 -37.69998,-3.40002c1.60001,0.40002 3.10001,0.80002 4.69998,1.30002c-1.5,-13.20001 -18,-19.89999 -28.29999,-11.60001c-2.5,2 1.10001,5.5 3.5,3.5c6.79999,-5.5 18.79999,-0.60001 19.79999,8c0.30002,2.5 3.10001,3.29999 4.70001,1.29999c8,-10.79999 23.60001,-8.39999 29,3.40002c0.5,1.09998 2.39999,1.59998 3.39999,0.89999c12.80002,-9.39999 30.39999,-3.70001 34.70001,11.79999c0.29999,1.10001 1.29999,1.80002 2.39999,1.80002c16.79999,0.19998 27.89999,17.39999 20.5,32.69998c-0.5,1.10001 -0.39999,2.20001 0.39999,3c10,11 8.39999,29.20001 -3,38.60001c-1.10001,0.89999 -0.79999,2.60001 0,3.5c8.20001,10.10001 5,25.39999 -5.29999,32.60001c-1.20001,0.79999 -3,1.60001 -3.70001,2.89999c-1.19998,2.10001 0,4.70001 0,7.09998c-0.10001,3.90002 -1.69998,8.70001 -5.79999,10c-3.30002,1 -7.30002,-0.19995 -8.20001,-3.79999c-0.69998,-2.70001 -4.89999,-2.09998 -4.89999,0.70001c0.10001,6.90002 -6.10001,12.09998 -12.79999,12.40002c-6.90002,0.39996 -13.10001,-3.80005 -17.80002,-8.5c-1.60001,-1.60004 -4.10001,-0.30005 -4.29999,1.79999c-0.60001,7.09998 -8.20001,11.29999 -14.80002,10.70001c-7.59998,-0.60004 -13.79999,-6 -18.79999,-11.20001c-1.10001,-1.10004 -3.20001,-0.90002 -3.89999,0.5c-8.89999,17.89996 -33.80002,17 -41.60001,-1.29999c-0.79999,-1.90002 -3.29999,-1.30005 -4.29999,0c-9.20001,12 -27.00002,9.39996 -33.40001,-3.80005c-0.90001,1.20001 -1.90001,2.40002 -2.8,3.70001c0.3,0.10004 0.60001,0.29999 0.89999,0.40002c-0.39999,-1.40002 -0.7,-2.79999 -1.09999,-4.20001c-14,11.5 -34.90001,5.5 -40.90001,-11.5c-0.39999,-1.10001 -1.29999,-1.79999 -2.39999,-1.79999c-11.10001,-0.30002 -19.2,-12.20001 -15.7,-22.60001c0.39999,-1.10001 -0.3,-2.20001 -1.10001,-2.80002c-10.59999,-7.79999 -11.7,-24.59998 -2.7,-34c0.89999,-0.89999 1,-2.59998 0,-3.5c-4.60001,-4.19998 -6.7,-10.5 -5.39999,-16.69998c0.7,-3.5 2.29999,-5.80002 4.5,-8.39999c1.39999,-1.60001 2.7,-3.10001 3,-5.30002c0.39999,-2.5 -0.8,-4.69998 -1.8,-6.89999c-1.40001,-3 -2.2,-5.89999 -1.60001,-9.29999c0.5,-2.90002 1.8,-5.70001 3.8,-7.90002c1.60001,-1.69998 3.7,-2.39999 4.8,-4.39999c0.39999,-0.69998 0.5,-1.79999 0,-2.5c-2.8,-3.79999 -4.3,-8.10001 -4.2,-12.79999c0.2,-4.70001 2.09999,-7.80002 4.29999,-11.70001c1.40001,-2.60001 1.10001,-3.5 -0.2,-6c-2.3,-4.39999 -2.89999,-9.60001 -2,-14.39999c0.8,-4.60001 2.90001,-8.20001 6,-11.60001c1.90001,-2.19998 3.60001,-4.10001 2.5,-7.19998c-1.7,-4.80002 -5.8,-7.90002 -5.89999,-13.5c-0.10001,-5 2.5,-8 6,-11.10001c1.2,-1 0.89999,-3.20001 -0.5,-3.89999c-9.40001,-5 -10.60001,-19.40002 -2.5,-26.20001c1.09999,-0.89999 0.8,-2.60001 0,-3.5c-12.2,-13.7 -6.3,-35.89999 11.7,-40.60001c1,-0.29999 1.89999,-1.29999 1.8,-2.39999c-0.10001,-9 5.59999,-18.3 14.89999,-20.3c8.7,-1.89999 17.2,3.2 21,10.8c1,2 4,1.39999 4.60001,-0.60001c2,-7.39999 8.3,-13.7 16.3,-14c7.89999,-0.29999 14.79999,5.3 17.29999,12.5c0.60001,1.70001 2.80002,2.60001 4.20001,1.10001c6.29999,-6.89999 15.29999,0 17.79999,6.7c1.19998,3.2 1.69998,6.60001 2,9.90001c0.29999,3.29999 0,4 2.39999,5.89999c9.20001,7.39999 10.10001,22.60001 1,30.5c-1.10001,1 -0.79999,2.5 0,3.5c4,5.20001 5.70001,11.79999 5.20001,18.29999c-0.30002,3.10001 -1,6.30002 -2.30002,9.10001c-0.69998,1.60001 -2.79999,6.10001 -4.39999,6.60001c-2.60001,0.70001 -2.20001,5.20001 0.70001,4.89999c4.39999,-0.39999 4.69998,10.89999 4.5,13.39999c-0.40002,4.60001 -2.20001,8.70001 -4.90002,12.30002c-0.89999,1.10001 -0.09998,2.69998 0.90002,3.39999c8.79999,6 10.59998,18.60001 4.89999,27.29999c-2.19998,2.40002 2.20001,4.90002 3.89999,2.20001l0,0z" class="st1"/>
   </g>
  </g>
  <path fill="#FFF3F3" d="m116.58881,42.31569c-7.70001,0 -13.89999,7 -13.89999,15.7c0,0.3 0,0.60001 0,1c-6.60001,-4.39999 -15.20001,-7.10001 -24.40001,-7.10001c-9.3,0 -17.8,2.70001 -24.39999,7.10001c0,-0.3 0,-0.60001 0,-1c0,-8.7 -6.2,-15.7 -13.90001,-15.7c-7.7,0 -13.89999,7 -13.89999,15.7c0,8.70001 6.2,15.70001 13.89999,15.70001c0.60001,0 1.20001,-0.10001 1.70001,-0.10001c-1.10001,2.89999 -1.70001,6 -1.70001,9.10001c0,17 17.20001,30.79999 38.3,30.79999s38.3,-13.79999 38.3,-30.79999c0,-3.20001 -0.60001,-6.20001 -1.70001,-9.10001c0.60001,0.10001 1.10001,0.10001 1.70001,0.10001c7.70001,0 13.89999,-7 13.89999,-15.70001c0,-8.7 -6.19998,-15.7 -13.89999,-15.7z" class="st2" id="XMLID_27_"/>
  <ellipse fill="#533724" ry="10" rx="9.9" cy="59.11569" cx="41.08881" class="st1" id="XMLID_20_"/>
  <ellipse fill="#533724" ry="10" rx="9.9" cy="59.11569" cx="116.28881" class="st1" id="XMLID_23_"/>
  <g id="XMLID_24_">
   <g id="svg_25">
    <path id="svg_26" fill="#FFFFFF" d="m44.58881,59.91568c3.2,0 3.2,-5 0,-5c-3.3,0 -3.3,5 0,5l0,0z" class="st3"/>
   </g>
  </g>
  <g id="XMLID_25_">
   <g id="svg_27">
    <path id="svg_28" fill="#FFFFFF" d="m118.88879,59.91568c3.20001,0 3.20001,-5 0,-5c-3.19998,0 -3.19998,5 0,5l0,0z" class="st3"/>
   </g>
  </g>
  <path fill="#533724" d="m82.2888,76.61569c0,3 -7,8 -7,8s-7,-4.89999 -7,-8c0,-3 3.10001,-5.5 7,-5.5c3.90001,0 7,2.5 7,5.5z" class="st1" id="XMLID_26_"/>
  <g id="XMLID_28_">
   <g id="svg_29">
    <path id="svg_30" fill="#533724" d="m60.88881,89.51569c0.59999,4 5.2,6.20001 8.89999,5.20001c4.7,-1.30002 6.5,-6.80002 6,-11.20001c-0.2,-1.60001 -2.7,-1.60001 -2.5,0c0.3,3.10001 -0.39999,6.89999 -3.39999,8.5c-2.60001,1.39999 -6.2,-0.10001 -6.60001,-3.10001c-0.2,-1.60001 -2.59999,-0.89999 -2.39999,0.60001l0,0z" class="st1"/>
   </g>
  </g>
  <g id="XMLID_29_">
   <g id="svg_31">
    <path id="svg_32" fill="#533724" d="m87.38881,88.91568c-0.40001,3 -4,4.39999 -6.60001,3.10001c-3,-1.5 -3.7,-5.40002 -3.39999,-8.5c0.2,-1.60001 -2.3,-1.60001 -2.5,0c-0.5,4.39999 1.3,9.79999 6,11.19998c3.7,1.10001 8.3,-1.10001 8.89999,-5.19998c0.2,-1.5 -2.2,-2.20001 -2.39999,-0.60001l0,0z" class="st1"/>
   </g>
  </g>
  <ellipse fill="#F9CDE4" ry="4.5" rx="4.9" cy="83.11569" cx="31.18881" class="st4" id="XMLID_30_"/>
  <ellipse fill="#F9CDE4" ry="4.5" rx="4.9" cy="83.11569" cx="126.18881" class="st4" id="XMLID_35_"/>
  <g id="XMLID_34_">
   <path id="svg_33" fill="#B8DDD8" d="m70.2888,143.01569c-0.09999,-0.5 -0.89999,0.39999 -0.39999,0.60001s1,-0.30002 1.3,-0.80002c7.29999,-11.09998 21.79999,-16.79999 34.69998,-13.69998c0.10001,12.39999 0.30002,24.89999 0.40002,37.29999c-9.90002,3.30002 -21.00002,2.5 -30.30002,-2.10001c-3.7,-1.89999 -7.5,-4.89999 -7.59999,-9.09998c-0.10001,4.19998 -3.90001,7.29999 -7.60001,9.09998c-9.3,4.60001 -20.5,5.40002 -30.3,2.10001c0.10001,-12.39999 0.3,-24.89999 0.40001,-37.29999c12.89999,-3.10001 27.39999,2.60001 34.7,13.69998c0.3,0.5 0.8,1 1.3,0.80002s-0.3,-1.10001 -0.40001,-0.60001" class="st5"/>
   <g id="svg_34">
    <path id="svg_35" fill="#533724" d="m71.2888,141.31567c-0.09999,0 -0.2,-0.10001 -0.2,-0.10001c-1,-0.5 -2,-0.19998 -2.60001,0.70001c-0.7,0.89999 -0.5,1.60001 -0.09999,2.60001c0.3,0.79999 1.39999,1 2.09999,0.89999c2.3,-0.5 3.3,-3 4.70001,-4.70001c2.39999,-2.69998 5.29999,-5 8.39999,-6.69998c6.7,-3.60001 14.39999,-4.70001 21.79999,-3.10001c-0.5,-0.60001 -0.89999,-1.20001 -1.39999,-1.80002c0.10001,12.40002 0.30002,24.90002 0.39999,37.30002c0.5,-0.60001 0.90002,-1.20001 1.40002,-1.80002c-6.30002,1.90002 -12.80002,2.5 -19.30002,1.30002c-5.59999,-1.10001 -15.5,-3.89999 -16.29999,-10.70001c-0.3,-2.39999 -3.5,-2.39999 -3.8,0c-0.8,6.80002 -10.7,9.70001 -16.3,10.70001c-6.5,1.19998 -13,0.69998 -19.3,-1.30002c0.5,0.60001 0.90001,1.20001 1.40001,1.80002c0.09999,-12.39999 0.29999,-24.89999 0.39999,-37.30002c-0.5,0.60001 -0.89999,1.20001 -1.39999,1.80002c7.39999,-1.60001 15.09999,-0.5 21.79999,3.10001c3.20001,1.69998 6,4 8.40001,6.69998c1.5,1.70001 2.39999,4.20001 4.7,4.70001c0.7,0.19998 1.8,-0.10001 2.10001,-0.89999c0.39999,-1 0.59999,-1.70001 -0.10001,-2.60001c-0.60001,-0.80002 -1.60001,-1.20001 -2.60001,-0.70001c-0.09999,0 -0.2,0.10001 -0.2,0.10001c-2.09999,1.20001 -0.2,4.39999 1.90001,3.20001c0.09999,0 0.2,-0.10001 0.2,-0.10001c-0.90001,-0.20001 -1.7,-0.39999 -2.60001,-0.70001c0,-0.39999 0.10001,-0.79999 0.10001,-1.19998c0.7,-0.30002 1.39999,-0.60001 2.09999,-0.90002c-0.89999,-0.19998 -2.39999,-2.89999 -3.09999,-3.69998c-1.2,-1.39999 -2.60001,-2.70001 -4.10001,-3.89999c-2.7,-2.10001 -5.59999,-3.80002 -8.7,-5.10001c-6.7,-2.80002 -14,-3.30002 -21.10001,-1.80002c-0.79999,0.20001 -1.39999,1 -1.39999,1.80002c-0.10001,12.39999 -0.3,24.89999 -0.39999,37.29999c0,0.80002 0.59999,1.60001 1.39999,1.80002c8.5,2.59998 17.5,2.79999 26,0c6.5,-2.10001 13.39999,-5.70001 14.3,-13.10001c-1.3,0 -2.5,0 -3.8,0c0.89999,7.39999 7.8,11 14.3,13.10001c8.5,2.79999 17.49998,2.59998 25.99998,0c0.80002,-0.20001 1.40002,-1 1.40002,-1.80002c-0.10001,-12.39999 -0.30002,-24.89999 -0.40002,-37.29999c0,-0.80002 -0.59998,-1.60001 -1.39999,-1.80002c-7.10001,-1.5 -14.29999,-1 -21.09999,1.80002c-3.10001,1.29999 -5.90001,2.89999 -8.5,5c-1.40001,1.10001 -2.60001,2.19998 -3.8,3.5c-0.7,0.69998 -2.7,4 -3.5,4.19998c0.7,0.30002 1.39999,0.60001 2.10001,0.90002c0,0.39999 0.09999,0.79999 0.09999,1.19998c-0.89999,0.20001 -1.7,0.39999 -2.59999,0.70001c0.09999,0 0.2,0.10001 0.2,0.10001c2.59999,1.20001 4.5,-2 2.39999,-3.20001l0,0z" class="st1"/>
   </g>
  </g>
  <g id="XMLID_37_">
   <path id="svg_36" fill="#B8DDD8" d="m71.2888,136.91568l-5.89999,0c-3.40001,0 -6.2,2.79999 -6.2,6.19998l0,16.40002c0,3.39999 2.79999,6.19998 6.2,6.19998l5.89999,0c3.40001,0 6.2,-2.79999 6.2,-6.19998l0,-16.40002c0,-3.39996 -2.79999,-6.19998 -6.2,-6.19998z" class="st5"/>
   <g id="svg_37">
    <path id="svg_38" fill="#533724" d="m71.2888,134.41568c-4.09999,0 -8.8,-0.70001 -12,2.5c-2.8,2.79999 -2.5,6.5 -2.5,10.10001c0,7.69998 -2.3,20.20001 8.7,21.09998c3.60001,0.30002 8.20001,0.5 11.10001,-1.79999c3.60001,-2.79999 3.5,-6.79999 3.5,-10.79999c-0.10001,-7.89999 2.10001,-20 -8.8,-21.10001c-3.2,-0.30002 -3.2,4.69998 0,5c5.7,0.60001 3.7,12.29999 3.7,16.10001c0,2.69998 0.60001,5.69998 -2.39999,7.09998c-1.89999,0.90002 -5.2,0.90002 -7.2,0.5c-5.7,-1.09998 -3.7,-11.5 -3.7,-15.59998c0,-2 -0.5,-5.40002 1.09999,-7c1.8,-1.80002 6.2,-1.10001 8.5,-1.10001c3.2,0 3.3,-5 0,-5z" class="st1"/>
   </g>
  </g>
  <g id="XMLID_32_">
   <line id="svg_39" fill="#EDB2BF" y2="144.61569" x2="51.38881" y1="148.71569" x1="57.98881" class="st6"/>
   <g id="svg_40">
    <path id="svg_41" fill="#533724" d="m59.2888,146.51569c-2.2,-1.29999 -4.39999,-2.70001 -6.59999,-4c-2.8,-1.70001 -5.3,2.60001 -2.5,4.29999c2.2,1.30002 4.39999,2.70001 6.59999,4c2.7,1.70001 5.2,-2.59998 2.5,-4.29999l0,0z" class="st1"/>
   </g>
  </g>
  <g id="XMLID_56_">
   <line id="svg_42" fill="#EDB2BF" y2="157.91569" x2="51.38881" y1="154.61569" x1="57.98881" class="st6"/>
   <g id="svg_43">
    <path id="svg_44" fill="#533724" d="m56.68881,152.41568c-2.2,1.10001 -4.39999,2.19998 -6.59999,3.29999c-2.90001,1.39999 -0.3,5.80002 2.5,4.30002c2.2,-1.10001 4.39999,-2.20001 6.59999,-3.30002c2.89999,-1.39999 0.39999,-5.69998 -2.5,-4.29999l0,0z" class="st1"/>
   </g>
  </g>
  <g id="XMLID_58_">
   <line id="svg_45" fill="#EDB2BF" y2="143.01569" x2="87.38881" y1="147.01569" x1="80.78881" class="st6"/>
   <g id="svg_46">
    <path id="svg_47" fill="#533724" d="m81.9888,149.2157c2.2,-1.29999 4.39999,-2.70001 6.59999,-4c2.70001,-1.70001 0.20001,-6 -2.5,-4.29999c-2.2,1.29999 -4.39999,2.69998 -6.59999,4c-2.7,1.59998 -0.2,5.99997 2.5,4.29999l0,0z" class="st1"/>
   </g>
  </g>
  <g id="XMLID_57_">
   <line id="svg_48" fill="#EDB2BF" y2="156.21569" x2="87.38881" y1="152.91569" x1="80.78881" class="st6"/>
   <g id="svg_49">
    <path id="svg_50" fill="#533724" d="m79.4888,155.11569c2.2,1.10001 4.39999,2.20001 6.59999,3.30002c2.90001,1.39999 5.40001,-2.90002 2.5,-4.30002c-2.2,-1.10001 -4.39999,-2.19998 -6.59999,-3.29999c-2.79999,-1.50003 -5.39999,2.79999 -2.5,4.29999l0,0z" class="st1"/>
   </g>
  </g>
 </g>
</svg>